{"title":"I, Frankenstein 2014 DVDRiP","uid":9766296,"size":1098018950,"categoryP":"video","categoryS":"movies","magnet":"?xt=urn:btih:38ae4472a42fbdfa055ac16940eed6c7b33111d7&amp;dn=I%2C+Frankenstein+2014+DVDRiP&amp;tr=udp%3A%2F%2Ftracker.openbittorrent.com%3A80&amp;tr=udp%3A%2F%2Fopen.demonii.com%3A1337&amp;tr=udp%3A%2F%2Ftracker.coppersurfer.tk%3A6969&amp;tr=udp%3A%2F%2Fexodus.desync.com%3A6969","seeders":5,"leechers":0,"uploader":"IiTzShAnE","files":-1,"time":1394883358,"description":"General\nComplete name            : I, Frankenstein 2014 DVDRiP.DiVX.MP3-IiTzShAnE.avi\nFormat                                   : AVI\nFormat/Info                              : Audio Video Interleave\nFormat profile                           : OpenDML\nFile size                                : 1.02 GiB\nDuration                                 : 1h 29mn\nOverall bit rate                         : 1 640 Kbps\nWriting application                      : Lavf51.12.1\n\nVideo\nID                                       : 0\nFormat                                   : MPEG-4 Visual\nFormat profile                           : Simple@L1\nFormat settings, BVOP                    : No\nFormat settings, QPel                    : No\nFormat settings, GMC                     : No warppoints\nFormat settings, Matrix                  : Default (H.263)\nCodec ID                                 : DX50\nCodec ID/Hint                            : DivX 5\nDuration                                 : 1h 29mn\nBit rate                                 : 1 496 Kbps\nWidth                                    : 720 pixels\nHeight                                   : 304 pixels\nDisplay aspect ratio                     : 2.35:1\nFrame rate                               : 25.000 fps\nColor space                              : YUV\nChroma subsampling                       : 4:2:0\nBit depth                                : 8 bits\nScan type                                : Progressive\nCompression mode                         : Lossy\nBits/(Pixel*Frame)                       : 0.273\nStream size                              : 955 MiB (91%)\nWriting library                          : Lavc51.40.4\n\nAudio\nID                                       : 1\nFormat                                   : MPEG Audio\nFormat version                           : Version 1\nFormat profile                           : Layer 3\nMode                                     : Joint stereo\nCodec ID                                 : 55\nCodec ID/Hint                            : MP3\nDuration                                 : 1h 29mn\nBit rate mode                            : Constant\nBit rate                                 : 128 Kbps\nChannel(s)                               : 2 channels\nSampling rate                            : 44.1 KHz\nCompression mode                         : Lossy\nStream size                              : 81.7 MiB (8%)\nAlignment                                : Aligned on interleaves\nInterleave, duration                     : 26 ms (0.65 video frame)\nInterleave, preload duration             : 26 ms\nWriting library                          : LAME3.97\n","torrent":{"xt":"urn:btih:38ae4472a42fbdfa055ac16940eed6c7b33111d7","amp;dn":"I%2C+Frankenstein+2014+DVDRiP","amp;tr":["udp%3A%2F%2Ftracker.openbittorrent.com%3A80","udp%3A%2F%2Fopen.demonii.com%3A1337","udp%3A%2F%2Ftracker.coppersurfer.tk%3A6969","udp%3A%2F%2Fexodus.desync.com%3A6969"],"infoHash":"38ae4472a42fbdfa055ac16940eed6c7b33111d7","infoHashBuffer":{"type":"Buffer","data":[56,174,68,114,164,47,189,250,5,90,193,105,64,238,214,199,179,49,17,215]},"announce":[],"urlList":[]}}